LevelGround_ccw_fast_01.mot
version=1
nRows=15
nColumns=82
inDegrees=yes
endheader
time	Treadmill_R_vx	Treadmill_R_vy	Treadmill_R_vz	Treadmill_R_px	Treadmill_R_py	Treadmill_R_pz	Treadmill_R_moment_x	Treadmill_R_moment_y	Treadmill_R_moment_z	Treadmill_L_vx	Treadmill_L_vy	Treadmill_L_vz	Treadmill_L_px	Treadmill_L_py	Treadmill_L_pz	Treadmill_L_moment_x	Treadmill_L_moment_y	Treadmill_L_moment_z	Amp1_vx	Amp1_vy	Amp1_vz	Amp1_px	Amp1_py	Amp1_pz	Amp1_moment_x	Amp1_moment_y	Amp1_moment_z	Amp2_vx	Amp2_vy	Amp2_vz	Amp2_px	Amp2_py	Amp2_pz	Amp2_moment_x	Amp2_moment_y	Amp2_moment_z	Amp3_vx	Amp3_vy	Amp3_vz	Amp3_px	Amp3_py	Amp3_pz	Amp3_moment_x	Amp3_moment_y	Amp3_moment_z	Amp4_vx	Amp4_vy	Amp4_vz	Amp4_px	Amp4_py	Amp4_pz	Amp4_moment_x	Amp4_moment_y	Amp4_moment_z	Amp5_vx	Amp5_vy	Amp5_vz	Amp5_px	Amp5_py	Amp5_pz	Amp5_moment_x	Amp5_moment_y	Amp5_moment_z	Amp6_vx	Amp6_vy	Amp6_vz	Amp6_px	Amp6_py	Amp6_pz	Amp6_moment_x	Amp6_moment_y	Amp6_moment_z	Combined_vx	Combined_vy	Combined_vz	Combined_px	Combined_py	Combined_pz	Combined_moment_x	Combined_moment_y	Combined_moment_z	
22.32	0	0	0	1.1201	0	0	0	0	0	0	0	0	0	0	0	0	0	0	0	0	0	-2.70027	0.011445	0.209265	0	0	0	0	0	0	-2.29957	0.00867897	-0.401811	0	0	0	0	0	0	-2.31269	-0.000640026	-2.84748	0	0	0	0	0	0	-2.31651	-0.00280835	-3.45404	0	0	0	107.885	720.562	239.996	-0.454963	-0.000220685	-6.52154	-79.0752	18.4853	-41.3011	-37.4245	148.495	13.8143	0.109728	-0.00023438	-6.03353	16.5107	4.70039	-0.845138	0	0	0	0	0	0	0	0	0
22.321	0	0	0	1.1201	0	0	0	0	0	0	0	0	0	0	0	0	0	0	0	0	0	-2.70027	0.011445	0.209265	0	0	0	0	0	0	-2.29957	0.00867897	-0.401811	0	0	0	0	0	0	-2.31269	-0.000640026	-2.84748	0	0	0	0	0	0	-2.31651	-0.00280835	-3.45404	0	0	0	111.899	718.461	236.336	-0.455896	-0.000223464	-6.52246	-79.1092	17.3625	-41.3549	-34.1771	137.615	11.1322	0.109353	-0.000238741	-6.03457	15.9717	4.31852	-1.04468	0	0	0	0	0	0	0	0	0
22.322	0	0	0	1.1201	0	0	0	0	0	0	0	0	0	0	0	0	0	0	0	0	0	-2.70027	0.011445	0.209265	0	0	0	0	0	0	-2.29957	0.00867897	-0.401811	0	0	0	0	0	0	-2.31269	-0.000640026	-2.84748	0	0	0	0	0	0	-2.31651	-0.00280835	-3.45404	0	0	0	114.286	713.91	234.794	-0.456799	-0.000226197	-6.52336	-79.2678	18.0332	-40.822	-31.3643	129.154	8.02365	0.108978	-0.000243289	-6.03566	15.6784	3.58089	-1.20489	0	0	0	0	0	0	0	0	0
22.323	0	0	0	1.1201	0	0	0	0	0	0	0	0	0	0	0	0	0	0	0	0	0	-2.70027	0.011445	0.209265	0	0	0	0	0	0	-2.29957	0.00867897	-0.401811	0	0	0	0	0	0	-2.31269	-0.000640026	-2.84748	0	0	0	0	0	0	-2.31651	-0.00280835	-3.45404	0	0	0	114.407	710.387	236.264	-0.457674	-0.000228877	-6.52423	-79.3286	19.4264	-40.2521	-28.6002	122.362	5.11326	0.108604	-0.000248032	-6.03678	15.2216	2.65196	-1.02248	0	0	0	0	0	0	0	0	0
22.324	0	0	0	1.1201	0	0	0	0	0	0	0	0	0	0	0	0	0	0	0	0	0	-2.70027	0.011445	0.209265	0	0	0	0	0	0	-2.29957	0.00867897	-0.401811	0	0	0	0	0	0	-2.31269	-0.000640026	-2.84748	0	0	0	0	0	0	-2.31651	-0.00280835	-3.45404	0	0	0	112.761	711.311	238.848	-0.458521	-0.000231497	-6.52508	-79.0569	19.6839	-40.5433	-27.1309	116.091	2.18062	0.108232	-0.000252977	-6.03795	14.4292	1.95269	-0.737144	0	0	0	0	0	0	0	0	0
22.325	0	0	0	1.1201	0	0	0	0	0	0	0	0	0	0	0	0	0	0	0	0	0	-2.70027	0.011445	0.209265	0	0	0	0	0	0	-2.29957	0.00867897	-0.401811	0	0	0	0	0	0	-2.31269	-0.000640026	-2.84748	0	0	0	0	0	0	-2.31651	-0.00280835	-3.45404	0	0	0	110.194	715.553	242.21	-0.459341	-0.000234051	-6.5259	-78.5644	19.1292	-41.4832	-27.2601	109.653	-1.00804	0.107862	-0.000258133	-6.03917	13.5321	1.7128	-0.547396	0	0	0	0	0	0	0	0	0
22.326	0	0	0	1.1201	0	0	0	0	0	0	0	0	0	0	0	0	0	0	0	0	0	-2.70027	0.011445	0.209265	0	0	0	0	0	0	-2.29957	0.00867897	-0.401811	0	0	0	0	0	0	-2.31269	-0.000640026	-2.84748	0	0	0	0	0	0	-2.31651	-0.00280835	-3.45404	0	0	0	108.104	720.547	248.116	-0.460137	-0.000236532	-6.5267	-77.7439	19.557	-41.795	-27.7886	102.393	-3.81564	0.107497	-0.000263511	-6.04043	12.7126	1.7375	-0.663815	0	0	0	0	0	0	0	0	0
22.327	0	0	0	1.1201	0	0	0	0	0	0	0	0	0	0	0	0	0	0	0	0	0	-2.70027	0.011445	0.209265	0	0	0	0	0	0	-2.29957	0.00867897	-0.401811	0	0	0	0	0	0	-2.31269	-0.000640026	-2.84748	0	0	0	0	0	0	-2.31651	-0.00280835	-3.45404	0	0	0	107.323	724.22	255.224	-0.46091	-0.000238936	-6.52748	-76.9117	21.0609	-41.5942	-27.6184	95.173	-5.1296	0.107138	-0.000269122	-6.04175	11.6532	1.53163	-0.915941	0	0	0	0	0	0	0	0	0
22.328	0	0	0	1.1201	0	0	0	0	0	0	0	0	0	0	0	0	0	0	0	0	0	-2.70027	0.011445	0.209265	0	0	0	0	0	0	-2.29957	0.00867897	-0.401811	0	0	0	0	0	0	-2.31269	-0.000640026	-2.84748	0	0	0	0	0	0	-2.31651	-0.00280835	-3.45404	0	0	0	107.619	725.929	259.237	-0.461661	-0.000241257	-6.52823	-76.7595	21.9434	-42.2042	-26.2479	88.1419	-5.45863	0.106785	-0.000274978	-6.04312	10.2809	0.969673	-1.05222	0	0	0	0	0	0	0	0	0
22.329	0	0	0	1.1201	0	0	0	0	0	0	0	0	0	0	0	0	0	0	0	0	0	-2.70027	0.011445	0.209265	0	0	0	0	0	0	-2.29957	0.00867897	-0.401811	0	0	0	0	0	0	-2.31269	-0.000640026	-2.84748	0	0	0	0	0	0	-2.31651	-0.00280835	-3.45404	0	0	0	108.436	728.024	259.822	-0.462392	-0.000243492	-6.52895	-76.9291	21.5464	-43.4343	-24.0342	80.8091	-6.04045	0.106441	-0.000281095	-6.04455	9.06217	0.405248	-1.05269	0	0	0	0	0	0	0	0	0
22.33	0	0	0	1.1201	0	0	0	0	0	0	0	0	0	0	0	0	0	0	0	0	0	-2.70027	0.011445	0.209265	0	0	0	0	0	0	-2.29957	0.00867897	-0.401811	0	0	0	0	0	0	-2.31269	-0.000640026	-2.84748	0	0	0	0	0	0	-2.31651	-0.00280835	-3.45404	0	0	0	109.185	732.712	260.818	-0.463104	-0.000245636	-6.52966	-76.5517	21.0067	-44.1378	-21.846	73.892	-6.92582	0.106108	-0.000287489	-6.04604	8.23622	0.0610566	-1.00555	0	0	0	0	0	0	0	0	0
22.331	0	0	0	1.1201	0	0	0	0	0	0	0	0	0	0	0	0	0	0	0	0	0	-2.70027	0.011445	0.209265	0	0	0	0	0	0	-2.29957	0.00867897	-0.401811	0	0	0	0	0	0	-2.31269	-0.000640026	-2.84748	0	0	0	0	0	0	-2.31651	-0.00280835	-3.45404	0	0	0	109.459	739.86	264.674	-0.4638	-0.000247686	-6.53034	-75.6623	21.3255	-44.4793	-20.3456	67.8056	-8.27127	0.105787	-0.00029418	-6.04759	7.7677	0.166553	-1.1048	0	0	0	0	0	0	0	0	0
22.332	0	0	0	1.1201	0	0	0	0	0	0	0	0	0	0	0	0	0	0	0	0	0	-2.70027	0.011445	0.209265	0	0	0	0	0	0	-2.29957	0.00867897	-0.401811	0	0	0	0	0	0	-2.31269	-0.000640026	-2.84748	0	0	0	0	0	0	-2.31651	-0.00280835	-3.45404	0	0	0	109.242	748.913	271.231	-0.464481	-0.000249642	-6.53101	-75.0806	22.3159	-46.0237	-19.1655	62.8013	-10.1299	0.105482	-0.00030119	-6.04921	7.60271	0.576738	-1.04341	0	0	0	0	0	0	0	0	0
22.333	0	0	0	1.1201	0	0	0	0	0	0	0	0	0	0	0	0	0	0	0	0	0	-2.70027	0.011445	0.209265	0	0	0	0	0	0	-2.29957	0.00867897	-0.401811	0	0	0	0	0	0	-2.31269	-0.000640026	-2.84748	0	0	0	0	0	0	-2.31651	-0.00280835	-3.45404	0	0	0	108.841	757.512	277.815	-0.465148	-0.0002515	-6.53165	-74.9699	22.9187	-48.863	-17.3513	57.8213	-11.4759	0.105194	-0.000308546	-6.0509	7.36733	0.777989	-0.659264	0	0	0	0	0	0	0	0	0
22.334	0	0	0	1.1201	0	0	0	0	0	0	0	0	0	0	0	0	0	0	0	0	0	-2.70027	0.011445	0.209265	0	0	0	0	0	0	-2.29957	0.00867897	-0.401811	0	0	0	0	0	0	-2.31269	-0.000640026	-2.84748	0	0	0	0	0	0	-2.31651	-0.00280835	-3.45404	0	0	0	108.132	761.944	281.847	-0.465802	-0.000253262	-6.53227	-75.0003	22.6157	-50.5917	-14.2823	51.1469	-11.7421	0.104928	-0.000316279	-6.05267	6.6486	0.739336	-0.38108	0	0	0	0	0	0	0	0	0
